<svg width="58px" height="50px" viewBox="0 0 58 50" version="1.1" xmlns="http://www.w3.org/2000/svg" xmlns:xlink="http://www.w3.org/1999/xlink">
    <!-- Generator: Sketch 56.3 (81716) - https://sketch.com -->
    <title>buscar</title>
    <desc>Created with Sketch.</desc>
    <g id="Web" stroke="none" stroke-width="1" fill="none" fill-rule="evenodd">
        <g id="Home-Final" transform="translate(-792.000000, -1129.000000)" fill-rule="nonzero">
            <g id="buscar" transform="translate(792.000000, 1129.000000)">
                <g id="form-copy-2">
                    <path d="M0,49.0740741 C0,49.5833333 0.420967742,50 0.935483871,50 L57.0645161,50 C57.5790323,50 58,49.5833333 58,49.0740741 L58,3.7037037 L0,3.7037037 L0,49.0740741 Z" id="Path" fill="#EBF9F7"></path>
                    <path d="M58,1.85185185 L58,3.7037037 L0,3.7037037 L0,1.85185185 C0,0.825 0.832580645,0 1.87096774,0 L56.1290323,0 C57.1674194,0 58,0.825 58,1.85185185 Z" id="Path" fill="#6956D8"></path>
                    <path d="M2.81206452,0.924074074 L2.80270968,0.924074074 C2.28632258,0.924074074 1.87190323,1.33796296 1.87190323,1.85 C1.87190323,2.36111111 2.29567742,2.77592593 2.81206452,2.77592593 C3.3293871,2.77592593 3.74754839,2.36111111 3.74754839,1.85 C3.74754839,1.33796296 3.3293871,0.924074074 2.81206452,0.924074074 Z" id="Path" fill="#E6E9ED"></path>
                    <path d="M5.61758065,0.924074074 L5.60822581,0.924074074 C5.09090323,0.924074074 4.67741935,1.33796296 4.67741935,1.85 C4.67741935,2.36111111 5.10025806,2.77592593 5.61758065,2.77592593 C6.13490323,2.77592593 6.55306452,2.36111111 6.55306452,1.85 C6.55306452,1.33796296 6.13490323,0.924074074 5.61758065,0.924074074 L5.61758065,0.924074074 Z" id="Path" fill="#E6E9ED"></path>
                    <path d="M8.42683871,0.924074074 L8.41748387,0.924074074 C7.90109677,0.924074074 7.48667742,1.33796296 7.48667742,1.85 C7.48667742,2.36111111 7.91045161,2.77592593 8.42683871,2.77592593 C8.94416129,2.77592593 9.36232258,2.36111111 9.36232258,1.85 C9.36232258,1.33796296 8.94416129,0.924074074 8.42683871,0.924074074 Z" id="Path" fill="#E6E9ED"></path>
                    <path d="M9.35483871,12.962963 C9.35483871,13.4722222 8.93387097,13.8888889 8.41935484,13.8888889 L4.67741935,13.8888889 C4.16290323,13.8888889 3.74193548,13.4722222 3.74193548,12.962963 L3.74193548,9.25925926 C3.74193548,8.75 4.16290323,8.33333333 4.67741935,8.33333333 L8.41935484,8.33333333 C8.93387097,8.33333333 9.35483871,8.75 9.35483871,9.25925926 L9.35483871,12.962963 Z" id="Path" fill="#FFFFFF"></path>
                    <path d="M9.35483871,22.962963 C9.35483871,23.4722222 8.93387097,23.8888889 8.41935484,23.8888889 L4.67741935,23.8888889 C4.16290323,23.8888889 3.74193548,23.4722222 3.74193548,22.962963 L3.74193548,19.2592593 C3.74193548,18.75 4.16290323,18.3333333 4.67741935,18.3333333 L8.41935484,18.3333333 C8.93387097,18.3333333 9.35483871,18.75 9.35483871,19.2592593 L9.35483871,22.962963 Z" id="Path-Copy" fill="#FFFFFF"></path>
                    <path d="M9.35483871,32.962963 C9.35483871,33.4722222 8.93387097,33.8888889 8.41935484,33.8888889 L4.67741935,33.8888889 C4.16290323,33.8888889 3.74193548,33.4722222 3.74193548,32.962963 L3.74193548,29.2592593 C3.74193548,28.75 4.16290323,28.3333333 4.67741935,28.3333333 L8.41935484,28.3333333 C8.93387097,28.3333333 9.35483871,28.75 9.35483871,29.2592593 L9.35483871,32.962963 Z" id="Path-Copy-4" fill="#FFFFFF"></path>
                    <g id="Group" transform="translate(12.161290, 8.333333)" fill="#DAD6F5">
                        <path d="M40.0827452,2.3212963 L0.935483871,2.3212963 C0.41816129,2.3212963 0,1.90740741 0,1.39537037 C0,0.883333333 0.41816129,0.469444444 0.935483871,0.469444444 L40.0827452,0.469444444 C40.6000678,0.469444444 41.0182291,0.883333333 41.0182291,1.39537037 C41.0182291,1.90740741 40.6000678,2.3212963 40.0827452,2.3212963 Z" id="Path"></path>
                        <path d="M32.68723,5.09907407 L0.935483871,5.09907407 C0.41816129,5.09907407 0,4.68518519 0,4.17314815 C0,3.66111111 0.41816129,3.24722222 0.935483871,3.24722222 L32.68723,3.24722222 C33.2045526,3.24722222 33.6227139,3.66111111 33.6227139,4.17314815 C33.6227139,4.68518519 33.2045526,5.09907407 32.68723,5.09907407 Z" id="Path"></path>
                    </g>
                    <g id="Group-Copy" transform="translate(12.161290, 18.333333)" fill="#DAD6F5">
                        <path d="M40.0827452,2.3212963 L0.935483871,2.3212963 C0.41816129,2.3212963 0,1.90740741 0,1.39537037 C0,0.883333333 0.41816129,0.469444444 0.935483871,0.469444444 L40.0827452,0.469444444 C40.6000678,0.469444444 41.0182291,0.883333333 41.0182291,1.39537037 C41.0182291,1.90740741 40.6000678,2.3212963 40.0827452,2.3212963 Z" id="Path"></path>
                        <path d="M32.68723,5.09907407 L0.935483871,5.09907407 C0.41816129,5.09907407 0,4.68518519 0,4.17314815 C0,3.66111111 0.41816129,3.24722222 0.935483871,3.24722222 L32.68723,3.24722222 C33.2045526,3.24722222 33.6227139,3.66111111 33.6227139,4.17314815 C33.6227139,4.68518519 33.2045526,5.09907407 32.68723,5.09907407 Z" id="Path"></path>
                    </g>
                    <g id="Group-Copy-2" transform="translate(12.161290, 28.333333)" fill="#DAD6F5">
                        <path d="M40.0827452,2.3212963 L0.935483871,2.3212963 C0.41816129,2.3212963 0,1.90740741 0,1.39537037 C0,0.883333333 0.41816129,0.469444444 0.935483871,0.469444444 L40.0827452,0.469444444 C40.6000678,0.469444444 41.0182291,0.883333333 41.0182291,1.39537037 C41.0182291,1.90740741 40.6000678,2.3212963 40.0827452,2.3212963 Z" id="Path"></path>
                        <path d="M32.68723,5.09907407 L0.935483871,5.09907407 C0.41816129,5.09907407 0,4.68518519 0,4.17314815 C0,3.66111111 0.41816129,3.24722222 0.935483871,3.24722222 L32.68723,3.24722222 C33.2045526,3.24722222 33.6227139,3.66111111 33.6227139,4.17314815 C33.6227139,4.68518519 33.2045526,5.09907407 32.68723,5.09907407 Z" id="Path"></path>
                    </g>
                    <path d="M6.55306452,12.9648148 C6.31358065,12.9648148 6.07409677,12.8740741 5.89167742,12.6935185 L4.95151613,11.762963 C4.58574194,11.4009259 4.58574194,10.8157407 4.95151613,10.4537037 C5.31729032,10.0916667 5.90851613,10.0916667 6.27429032,10.4537037 L7.21445161,11.3842593 C7.58022581,11.7462963 7.58022581,12.3314815 7.21445161,12.6935185 C7.03203226,12.8740741 6.79254839,12.9648148 6.55306452,12.9648148 L6.55306452,12.9648148 Z" id="Path" fill="#7DD8C7"></path>
                    <path d="M6.55306452,22.9648148 C6.31358065,22.9648148 6.07409677,22.8740741 5.89167742,22.6935185 L4.95151613,21.762963 C4.58574194,21.4009259 4.58574194,20.8157407 4.95151613,20.4537037 C5.31729032,20.0916667 5.90851613,20.0916667 6.27429032,20.4537037 L7.21445161,21.3842593 C7.58022581,21.7462963 7.58022581,22.3314815 7.21445161,22.6935185 C7.03203226,22.8740741 6.79254839,22.9648148 6.55306452,22.9648148 L6.55306452,22.9648148 Z" id="Path-Copy-2" fill="#7DD8C7"></path>
                    <path d="M6.55306452,32.9648148 C6.31358065,32.9648148 6.07409677,32.8740741 5.89167742,32.6935185 L4.95151613,31.762963 C4.58574194,31.4009259 4.58574194,30.8157407 4.95151613,30.4537037 C5.31729032,30.0916667 5.90851613,30.0916667 6.27429032,30.4537037 L7.21445161,31.3842593 C7.58022581,31.7462963 7.58022581,32.3314815 7.21445161,32.6935185 C7.03203226,32.8740741 6.79254839,32.9648148 6.55306452,32.9648148 L6.55306452,32.9648148 Z" id="Path-Copy-5" fill="#7DD8C7"></path>
                    <path d="M6.55306452,12.9648148 C6.31358065,12.9648148 6.07409677,12.8740741 5.89167742,12.6935185 C5.52590323,12.3314815 5.52590323,11.7462963 5.89167742,11.3842593 L8.69345161,8.61111111 C9.05922581,8.24907407 9.65045161,8.24907407 10.0162258,8.61111111 C10.382,8.97314815 10.382,9.55833333 10.0162258,9.92037037 L7.21445161,12.6935185 C7.03203226,12.8740741 6.79254839,12.9648148 6.55306452,12.9648148 L6.55306452,12.9648148 Z" id="Path" fill="#7DD8C7"></path>
                    <path d="M6.55306452,22.9648148 C6.31358065,22.9648148 6.07409677,22.8740741 5.89167742,22.6935185 C5.52590323,22.3314815 5.52590323,21.7462963 5.89167742,21.3842593 L8.69345161,18.6111111 C9.05922581,18.2490741 9.65045161,18.2490741 10.0162258,18.6111111 C10.382,18.9731481 10.382,19.5583333 10.0162258,19.9203704 L7.21445161,22.6935185 C7.03203226,22.8740741 6.79254839,22.9648148 6.55306452,22.9648148 L6.55306452,22.9648148 Z" id="Path-Copy-3" fill="#7DD8C7"></path>
                    <path d="M6.55306452,32.9648148 C6.31358065,32.9648148 6.07409677,32.8740741 5.89167742,32.6935185 C5.52590323,32.3314815 5.52590323,31.7462963 5.89167742,31.3842593 L8.69345161,28.6111111 C9.05922581,28.2490741 9.65045161,28.2490741 10.0162258,28.6111111 C10.382,28.9731481 10.382,29.5583333 10.0162258,29.9203704 L7.21445161,32.6935185 C7.03203226,32.8740741 6.79254839,32.9648148 6.55306452,32.9648148 L6.55306452,32.9648148 Z" id="Path-Copy-6" fill="#7DD8C7"></path>
                    <path d="M18.705,40.9268519 L39.2856452,40.9268519 C40.8291935,40.9268519 42.0920968,42.1675926 42.0920968,43.7046296 C42.0920968,45.2324074 40.8291935,46.4824074 39.2856452,46.4824074 L18.705,46.4824074 C17.1614516,46.4824074 15.8985484,45.2324074 15.8985484,43.7046296 C15.8985484,42.1675926 17.1614516,40.9268519 18.705,40.9268519 Z" id="Path" fill="#281B74"></path>
                    <path d="M18.705,40 L39.2856452,40 C40.8291935,40 42.0920968,41.2407407 42.0920968,42.7777778 C42.0920968,44.3055556 40.8291935,45.5555556 39.2856452,45.5555556 L18.705,45.5555556 C17.1614516,45.5555556 15.8985484,44.3055556 15.8985484,42.7777778 C15.8985484,41.2407407 17.1614516,40 18.705,40 Z" id="Path" fill="#6956D8"></path>
                    <path d="M35.5437097,43.7037037 L22.4469355,43.7037037 C21.9296129,43.7037037 21.5114516,43.2898148 21.5114516,42.7777778 C21.5114516,42.2657407 21.9296129,41.8518519 22.4469355,41.8518519 L35.5437097,41.8518519 C36.0610323,41.8518519 36.4791935,42.2657407 36.4791935,42.7777778 C36.4791935,43.2898148 36.0610323,43.7037037 35.5437097,43.7037037 Z" id="Path" fill="#DAD6F5"></path>
                </g>
                <g id="Group-6" transform="translate(31.101449, 17.500000)">
                    <path d="M20.9019363,18.586192 L18.7479159,20.7217472 L22.9854311,24.9227321 C23.7451804,24.253579 24.4644797,23.5403767 25.1395563,22.7871769 L20.9019363,18.586192 Z" id="Path" fill="#445EA0"></path>
                    <path d="M21.7570473,17.2983762 L19.9718983,15.5287203 C19.4970812,16.4103277 18.8857187,17.2382241 18.136763,17.9806194 C17.3962956,18.7147035 16.5646582,19.3254706 15.6672108,19.8029473 L17.4490065,21.5692788 C17.6527241,21.7713441 17.9861755,21.7713441 18.1899979,21.5692788 L21.7570473,18.0329798 C21.960765,17.8310183 21.960765,17.5004415 21.7570473,17.2983762 Z" id="Path" fill="#293D7C"></path>
                    <path d="M18.6715218,20.3571985 L17.1478313,18.8466433 C16.6793018,19.2082831 16.1841548,19.5277437 15.667106,19.8028435 L17.4489017,21.5691749 C17.6526193,21.7712402 17.9860707,21.7712402 18.1898931,21.5691749 L19.4125132,20.3570946 C19.2086908,20.5592638 18.8753442,20.5592638 18.6715218,20.3571985 Z" id="Path" fill="#1A2B63"></path>
                    <path d="M18.2850451,3.11016976 C22.4679631,7.25702813 22.4679631,13.9805571 18.2849403,18.1275193 C14.1022319,22.274066 7.32034231,22.2741699 3.13710992,18.1274154 C-1.0458081,13.9805571 -1.04559851,7.25702813 3.13710992,3.11027365 C7.32034231,-1.03668862 14.1022319,-1.03679251 18.2850451,3.11016976 Z" id="Path" fill="#445EA0"></path>
                    <path d="M16.0216208,15.8833995 C13.0888834,18.7909585 8.33369077,18.7909585 5.40063906,15.8831917 C2.46790172,12.9759444 2.46779693,8.26164083 5.40063906,5.35408182 C8.3333764,2.4466267 13.0887787,2.44673059 16.021516,5.35408182 C18.9544629,8.26174472 18.9544629,12.9758405 16.0216208,15.8833995 Z" id="Path" fill="#69CDFF"></path>
                    <path d="M16.0216208,15.8833995 C16.2887382,15.6185848 16.5308101,15.3384984 16.7491987,15.0464646 C13.8092306,17.2078883 9.63846861,16.9677994 6.97253429,14.3248473 C4.30680956,11.6823107 4.06473769,7.54739964 6.24485159,4.63277614 C5.95017363,4.84938601 5.66775645,5.08937105 5.40063906,5.35408182 C2.46779693,8.26164083 2.46790172,12.9758405 5.40063906,15.8831917 C8.33369077,18.7909585 13.0888834,18.7909585 16.0216208,15.8833995 Z" id="Path" fill="#52BBEF"></path>
                    <g id="Group" transform="translate(10.656533, 4.331808)" fill="#D9EAFC">
                        <ellipse id="Oval" cx="1.34449439" cy="1.30173703" rx="1.25751619" ry="1.24667553"></ellipse>
                        <ellipse id="Oval" cx="3.98632632" cy="2.59724069" rx="1" ry="1"></ellipse>
                    </g>
                </g>
            </g>
        </g>
    </g>
</svg>