<svg width="57px" height="50px" viewBox="0 0 57 50" version="1.1" xmlns="http://www.w3.org/2000/svg" xmlns:xlink="http://www.w3.org/1999/xlink">
    <!-- Generator: Sketch 56.3 (81716) - https://sketch.com -->
    <title>depositos</title>
    <desc>Created with Sketch.</desc>
    <g id="Web" stroke="none" stroke-width="1" fill="none" fill-rule="evenodd">
        <g id="Home-Final" transform="translate(-196.000000, -1400.000000)" fill-rule="nonzero">
            <g id="depositos" transform="translate(196.000000, 1400.000000)">
                <path d="M51.206325,13.3524685 L5.73769655,13.3524685 C4.25135217,13.3524685 3.04646618,14.5396536 3.04646618,16.0040719 L3.04646618,45.0499768 L53.8975573,45.0499768 L53.8975573,16.0040719 C53.8975573,14.5396536 52.6926725,13.3524685 51.206325,13.3524685 Z" id="Path" fill="#304651"></path>
                <polygon id="Path" fill="#6956D8" transform="translate(28.471846, 29.201045) rotate(90.000000) translate(-28.471846, -29.201045) " points="15.2746767 6.46668884 41.6690149 6.46668884 41.6690149 51.9354013 15.2746767 51.9354013"></polygon>
                <polygon id="Path" fill="#ECECEC" points="56.91819 44.8593487 56.91819 47.9792846 54.8289471 49.947737 2.11494548 49.947737 0.0257026165 47.9792846 0.0257026165 44.8593487"></polygon>
                <polygon id="Path" fill="#DAD7DC" points="54.8278114 49.9473346 2.11618577 49.9473346 0.0284702651 47.982401 56.9155301 47.982401"></polygon>
                <ellipse id="Oval" fill="#FEED32" cx="15.6166228" cy="5.13489896" rx="5.05072537" ry="4.97635831"></ellipse>
                <ellipse id="Oval" fill="#EFBA1B" cx="15.6166228" cy="5.13489896" rx="3.70055732" ry="3.64607018"></ellipse>
                <path d="M15.4167524,7.89844313 L15.4167524,7.47810263 C15.0318472,7.45551945 14.7422484,7.3294962 14.5477766,7.09991754 C14.3532462,6.87033889 14.2559799,6.53942798 14.2559799,6.10694931 L14.2559799,5.98701168 L15.0142115,5.98701168 C15.0142115,6.00339262 15.0131418,6.02808246 15.0111232,6.06084679 C15.0089863,6.09360989 15.0079764,6.11724579 15.0079764,6.1315213 C15.0079764,6.34881461 15.0433075,6.51579079 15.1140893,6.63257027 C15.1847528,6.74946503 15.2950224,6.82119349 15.4448397,6.8478722 L15.4448397,5.45203032 C15.034994,5.23075928 14.7427826,5.00679633 14.5680249,4.78037704 C14.3932683,4.55395776 14.3059194,4.2879891 14.3059194,3.98258517 C14.3059194,3.62803721 14.4041944,3.34521769 14.6008032,3.13401007 C14.7973534,2.92303679 15.0693165,2.80918362 15.4167524,2.79280146 L15.4167524,2.37167327 L15.769355,2.37167327 L15.769355,2.79900364 C16.1270633,2.80309916 16.3996204,2.90150632 16.5868472,3.09410979 C16.7740154,3.28671203 16.867658,3.56648874 16.867658,3.93332334 L16.867658,4.02248668 L16.1281317,4.02248668 L16.1281317,3.95801312 C16.1281317,3.78378198 16.0943447,3.64746218 16.0267695,3.54905379 C15.9591346,3.45076319 15.8649577,3.39845849 15.7443547,3.39225753 L15.7443547,4.64967418 C16.2186287,4.89153947 16.5426085,5.12217091 16.7162966,5.34145302 C16.8899859,5.56073397 16.9768592,5.83430965 16.9768592,6.16229547 C16.9768592,6.56599 16.8733589,6.88063646 16.666418,7.10600303 C16.4594162,7.33148616 16.1603757,7.45551932 15.769355,7.47810244 L15.769355,7.89844313 L15.4167524,7.89844313 L15.4167524,7.89844313 Z M15.4448397,4.4805914 L15.4416928,3.3861732 C15.3210313,3.39646974 15.2284571,3.44514755 15.163969,3.53220423 C15.0994821,3.61926213 15.0672978,3.73873107 15.0672978,3.89038025 C15.0672978,4.00516958 15.0979379,4.11118261 15.1593377,4.20853706 C15.2206779,4.30589157 15.3158049,4.39657631 15.4448397,4.4805914 L15.4448397,4.4805914 Z M15.7443547,6.84787233 C15.8837215,6.82318371 15.9897759,6.76327321 16.0626348,6.66802419 C16.1354364,6.57265984 16.1718359,6.44616912 16.1718359,6.28831892 C16.1718359,6.13257537 16.1406616,6.00444669 16.0782518,5.90404943 C16.0158433,5.80365217 15.9045052,5.70313835 15.7443546,5.60274232 L15.7443546,6.84787233 L15.7443547,6.84787233 Z" id="Shape" fill="#E6E7E8"></path>
                <ellipse id="Oval" fill="#FEED32" cx="43.676894" cy="6.54408746" rx="4.72689396" ry="4.65729501"></ellipse>
                <ellipse id="Oval" fill="#EFBA1B" cx="43.676894" cy="6.54408746" rx="3.46355973" ry="3.41256216"></ellipse>
                <path d="M43.489901,9.13009452 L43.489901,8.7367087 C43.1296786,8.71557333 42.8586506,8.59763318 42.6766503,8.38277666 C42.4945927,8.16792008 42.4035652,7.85822803 42.4035652,7.45348324 L42.4035652,7.34123735 L43.1131736,7.34123735 C43.1131736,7.35656802 43.1121724,7.37967386 43.1102846,7.41033649 C43.1082822,7.44099905 43.1073382,7.46312088 43.1073382,7.47647992 C43.1073382,7.67983877 43.1404054,7.83610743 43.2066469,7.94539761 C43.2727788,8.05479695 43.3759777,8.12192562 43.5161864,8.14689393 L43.5161864,6.84056199 C43.1326248,6.63348057 42.8591512,6.42388023 42.695601,6.21198064 C42.5320508,6.00008105 42.450303,5.75116691 42.450303,5.46534871 C42.450303,5.13353664 42.5422745,4.86885382 42.7262773,4.67118985 C42.9102227,4.4737455 43.1647457,4.36719328 43.489901,4.35186197 L43.489901,3.95773947 L43.819893,3.95773947 L43.819893,4.35766603 C44.1546619,4.36149903 44.4097403,4.45359601 44.5849613,4.6338478 C44.7601275,4.81409895 44.8477654,5.07593529 44.8477654,5.41924567 L44.8477654,5.50269147 L44.1556632,5.50269147 L44.1556632,5.44235216 C44.1556632,5.27929357 44.1240405,5.15171514 44.0608001,5.05961816 C43.9975025,4.96763099 43.909364,4.91868018 43.7964967,4.91287613 L43.7964967,6.08965917 C44.2403547,6.31601407 44.5435582,6.53185647 44.7061122,6.73707599 C44.8686613,6.94229609 44.9499632,7.19832773 44.9499632,7.5052813 C44.9499632,7.88308725 44.8531002,8.17755662 44.6594291,8.38847104 C44.4657033,8.59949462 44.1858388,8.71557345 43.819893,8.73670882 L43.819893,9.13009452 L43.489901,9.13009452 L43.489901,9.13009452 Z M43.5161864,5.9314187 L43.5132426,4.90718181 C43.400318,4.91681887 43.3136788,4.9623741 43.2533275,5.04384878 C43.1929762,5.12532346 43.1628553,5.23713193 43.1628553,5.37905579 C43.1628553,5.48648408 43.1915317,5.5856992 43.2489939,5.6768103 C43.3063989,5.7679221 43.3954265,5.85279178 43.5161864,5.9314187 L43.5161864,5.9314187 Z M43.7964967,8.14689393 C43.9269249,8.12378809 44.0261788,8.06771914 44.0943654,7.9785791 C44.1624972,7.8893286 44.1965631,7.77095045 44.1965631,7.62322253 C44.1965631,7.47746631 44.1673887,7.35755325 44.1089801,7.26359503 C44.0505739,7.16963674 43.9463762,7.07556806 43.7964967,6.98160984 L43.7964967,8.14689393 L43.7964967,8.14689393 Z" id="Shape" fill="#E6E7E8"></path>
                <path d="M40.59271,28.5407236 L16.351291,28.5407236 C15.5084188,28.5407236 14.8187971,27.8612534 14.8187971,27.0307929 L14.8187971,27.0307905 C14.8187971,26.2003275 15.5084188,25.5208599 16.351291,25.5208599 L40.5927088,25.5208599 C41.4355797,25.5208599 42.1252014,26.2003276 42.1252014,27.0307905 L42.1252014,27.0307929 C42.1252014,27.8612534 41.435581,28.5407236 40.59271,28.5407236 Z" id="Path" fill="#281B74"></path>
                <path d="M20.1330912,27.0307905 L36.810931,27.0307905 C38.9746118,24.916361 40.3161281,21.9864937 40.3161281,18.7466902 C40.3161281,12.3016732 35.0133429,7.07692832 28.4720111,7.07692832 C21.9306793,7.07692832 16.6278941,12.3016732 16.6278941,18.7466902 C16.6278941,21.9864937 17.9694104,24.916361 20.1330912,27.0307905 Z" id="Path" fill="#FEED32"></path>
                <path d="M26.3561092,27.0307905 L30.587913,27.0307905 C34.3562729,26.0987438 37.1506038,22.7486526 37.1506038,18.7466902 C37.1506038,14.0241869 33.265048,10.1958826 28.4720111,10.1958826 C23.6789742,10.1958826 19.7934184,14.0241868 19.7934184,18.7466902 C19.7934184,22.7486526 22.5877493,26.0987438 26.3561092,27.0307905 L26.3561092,27.0307905 Z" id="Path" fill="#EFBA1B"></path>
                <path d="M28.003748,25.2272519 L28.003748,24.2414894 C27.1010886,24.1885271 26.4219323,23.8929854 25.965868,23.354587 C25.5096618,22.816191 25.2815612,22.0401529 25.2815612,21.025923 L25.2815612,20.7446507 L27.0597279,20.7446507 C27.0597279,20.7830688 27.0572224,20.8409708 27.0524879,20.9178046 C27.0474744,20.9946408 27.0451058,21.0500718 27.0451058,21.0835502 C27.0451058,21.593135 27.1279643,21.9847221 27.2939578,22.2585836 C27.4596723,22.5327225 27.7182724,22.7009367 28.0696184,22.7635036 L28.0696184,19.4900376 C27.1084682,18.9711231 26.423185,18.4458972 26.0133531,17.9149096 C25.6035211,17.3839219 25.3986749,16.7601821 25.3986749,16.0439674 C25.3986749,15.2124959 25.629144,14.549241 26.0902243,14.0539281 C26.5511626,13.5591623 27.1889582,13.2921593 28.0037481,13.2537412 L28.0037481,12.2661311 L28.8306546,12.2661311 L28.8306546,13.2682854 C29.6695381,13.2778875 30.308726,13.5086686 30.7478021,13.9603514 C31.1867387,14.4120342 31.4063465,15.0681556 31.4063465,15.9284382 L31.4063465,16.1375416 L29.6720436,16.1375416 L29.6720436,15.9863402 C29.6720436,15.5777403 29.5928064,15.2580499 29.4343319,15.0272688 C29.2757205,14.7967626 29.0548575,14.6740999 28.7720292,14.6595557 L28.7720292,17.6083916 C29.8842718,18.1756011 30.6440552,18.7164681 31.0513817,19.2307178 C31.4587056,19.7449674 31.6624386,20.3865421 31.6624386,21.1557216 C31.6624386,22.102445 31.4197134,22.8403398 30.9344049,23.3688564 C30.448957,23.8976503 29.7476596,24.1885272 28.8306546,24.2414895 L28.8306546,25.2272519 L28.003748,25.2272519 L28.003748,25.2272519 Z M28.0696184,17.2118648 L28.0622364,14.6452863 C27.7792662,14.669435 27.5621664,14.7835901 27.4109344,14.9877538 C27.2597,15.1919151 27.1842235,15.4720905 27.1842235,15.827728 C27.1842235,16.0969272 27.2560812,16.3455456 27.4000706,16.5738556 C27.5439231,16.8021681 27.7670127,17.014837 28.0696184,17.2118648 Z M28.7720291,22.7635036 C29.0988631,22.7056015 29.3475756,22.565104 29.5184431,22.3417312 C29.6891711,22.118086 29.7745377,21.821445 29.7745377,21.4512633 C29.7745377,21.0860212 29.7014272,20.7855398 29.5550669,20.5500939 C29.408709,20.314648 29.1476034,20.0789272 28.7720291,19.8434813 L28.7720291,22.7635036 L28.7720291,22.7635036 Z" id="Shape" fill="#E6E7E8"></path>
                <g id="Group" transform="translate(17.372886, 7.679686)" fill="#EFBA1B">
                    <path d="M11.1746216,1.79270356 L11.0236063,1.79270356 C10.9298765,1.79270356 10.8531871,1.71714454 10.8531871,1.62479482 L10.8531871,0.28868063 C10.8531871,0.196330909 10.9298765,0.120771893 11.0236063,0.120771893 L11.1746216,0.120771893 C11.2683514,0.120771893 11.3450408,0.196330909 11.3450408,0.28868063 L11.3450408,1.62479482 C11.3450408,1.71714454 11.2683514,1.79270356 11.1746216,1.79270356 Z" id="Path"></path>
                    <path d="M7.95066613,2.32656838 L7.8087589,2.3774584 C7.72068263,2.40904367 7.62239013,2.36388348 7.59033161,2.27710405 L7.1265242,1.02156705 C7.09446816,0.934786395 7.14030199,0.837941161 7.22837826,0.806355888 L7.37028797,0.75546587 C7.45836424,0.723880597 7.55665673,0.769039569 7.58871526,0.855820221 L8.05252266,2.11135722 C8.08457871,2.19813788 8.03874488,2.29498189 7.95066613,2.32656838 Z" id="Path"></path>
                    <path d="M5.10646172,3.91465786 L4.99077758,4.01029825 C4.91897469,4.0696603 4.81093409,4.06034783 4.75068741,3.9896021 L3.87901558,2.96608047 C3.81876642,2.89533726 3.82821806,2.78888622 3.90002101,2.7295254 L4.01570515,2.63388379 C4.08750556,2.57452174 4.19554616,2.58383543 4.25579532,2.65457865 L5.12746715,3.67810272 C5.18771631,3.748846 5.17826461,3.85529581 5.10646172,3.91465786 Z" id="Path"></path>
                    <path d="M2.9850607,6.36542505 L2.90955183,6.49428378 C2.8626869,6.57426099 2.75792887,6.60191638 2.67675648,6.55574148 L1.50235432,5.88768442 C1.42118193,5.84150953 1.39311326,5.73829396 1.43997819,5.65831676 L1.51548706,5.52946047 C1.56235199,5.44948327 1.66711002,5.42182543 1.74828241,5.46800032 L2.92268202,6.13605739 C3.00385447,6.18223228 3.03192563,6.28544784 2.9850607,6.36542505 L2.9850607,6.36542505 Z" id="Path"></path>
                    <path d="M20.7582471,16.4756938 L20.6827383,16.6045501 C20.6358759,16.6845273 20.5311179,16.7121852 20.4499454,16.6660103 L19.2755458,15.9979532 C19.1943734,15.9517783 19.1663022,15.8485628 19.2131672,15.7685856 L19.288676,15.6397268 C19.335541,15.5597496 19.440299,15.5320942 19.5214714,15.5782691 L20.6958736,16.2463262 C20.7770459,16.292501 20.8051146,16.3957166 20.7582471,16.4756938 L20.7582471,16.4756938 Z" id="Path"></path>
                    <path d="M1.84233101,9.38327412 L1.81610792,9.52980574 C1.79983212,9.62075184 1.71099126,9.68204268 1.61868606,9.66600654 L0.283206824,9.43399361 C0.190901619,9.41795746 0.128694846,9.33042469 0.144970639,9.23947859 L0.171193736,9.09294697 C0.187469528,9.00199843 0.276310391,8.94070759 0.368615596,8.95674618 L1.70409731,9.18875911 C1.79640258,9.20479525 1.85860935,9.29232802 1.84233101,9.38327412 L1.84233101,9.38327412 Z" id="Path"></path>
                    <path d="M22.0532548,12.894532 L22.0270341,13.0410636 C22.0107558,13.1320121 21.9219175,13.193303 21.8296123,13.1772644 L20.4941331,12.9452514 C20.4018278,12.9292153 20.3396186,12.8416825 20.3558969,12.7507364 L20.3821175,12.6042048 C20.3983958,12.5132587 20.4872341,12.4519679 20.5795393,12.468004 L21.9150186,12.7000169 C22.0073288,12.7160531 22.0695331,12.8035859 22.0532548,12.894532 Z" id="Path"></path>
                    <path d="M1.81610792,12.6042048 L1.84233101,12.7507364 C1.85860681,12.841685 1.7964001,12.9292153 1.70409483,12.9452514 L0.368615596,13.1772644 C0.276310391,13.193303 0.187469528,13.1320122 0.171193736,13.0410636 L0.144970639,12.894532 C0.128694846,12.8035859 0.190901554,12.7160531 0.283206824,12.7000169 L1.61868606,12.468004 C1.71099126,12.4519679 1.79983206,12.5132587 1.81610792,12.6042048 Z" id="Path"></path>
                    <path d="M22.0270341,9.09294691 L22.0532548,9.23947853 C22.0695331,9.33042463 22.0073238,9.4179574 21.9150186,9.43399354 L20.5795393,9.66600647 C20.4872341,9.68204262 20.3983958,9.62075184 20.3821175,9.52980568 L20.3558969,9.38327406 C20.3396185,9.29232796 20.4018278,9.20479519 20.4941331,9.18875904 L21.8296123,8.95674611 C21.9219175,8.94070752 22.0107558,9.00199836 22.0270341,9.09294691 Z" id="Path"></path>
                    <path d="M2.90955183,15.6397268 L2.9850607,15.7685855 C3.03192563,15.8485627 3.00385447,15.9517783 2.92268208,15.9979532 L1.74828247,16.6660102 C1.66711008,16.7121851 1.56235206,16.6845273 1.51548712,16.6045501 L1.43997826,16.4756913 C1.39311332,16.3957141 1.42118448,16.292501 1.50235687,16.2463237 L2.67675648,15.5782666 C2.75792887,15.5320918 2.8626869,15.5597496 2.90955183,15.6397268 Z" id="Path"></path>
                    <path d="M20.6827433,5.52946047 L20.7582472,5.6583192 C20.8051146,5.73829641 20.7770459,5.84151197 20.6958736,5.88768687 L19.5214714,6.55574148 C19.440299,6.60191638 19.335541,6.57426099 19.288676,6.49428378 L19.2131672,6.36542505 C19.1663022,6.28544784 19.1943709,6.18223228 19.2755458,6.13605739 L20.4499454,5.46800032 C20.5311179,5.42182543 20.6358759,5.44948327 20.6827433,5.52946047 Z" id="Path"></path>
                    <path d="M18.1825228,2.63388385 L18.2982069,2.72952546 C18.3700073,2.78888751 18.379459,2.89533732 18.3192124,2.96608054 L17.4475405,3.98960461 C17.3872914,4.06034783 17.2792508,4.06966036 17.2074504,4.01029825 L17.0917637,3.91465786 C17.0199633,3.85529581 17.0105116,3.748846 17.0707609,3.67810156 L17.9424327,2.65457871 C18.0026793,2.58383427 18.1107199,2.5745218 18.1825228,2.63388385 L18.1825228,2.63388385 Z" id="Path"></path>
                    <path d="M14.8279399,0.755465935 L14.9698496,0.806355953 C15.0579259,0.837942448 15.1037597,0.934786459 15.0717011,1.02156711 L14.6078962,2.27710411 C14.5758377,2.36388477 14.4775452,2.40904367 14.3894689,2.37745847 L14.2475592,2.32656722 C14.1594829,2.29498195 14.1136492,2.19813672 14.1457051,2.11135729 L14.6095126,0.855820285 C14.6415711,0.769039634 14.7398612,0.723880662 14.8279399,0.755465935 L14.8279399,0.755465935 Z" id="Path"></path>
                </g>
            </g>
        </g>
    </g>
</svg>