<svg id="Layer_1" data-name="Layer 1" xmlns="http://www.w3.org/2000/svg" viewBox="0 0 559.24 314.66"><defs>
<style>.cls-1,.cls-2.cls-2{font-size:108.17px;font-family:Afterglow-Regular, Afterglow;}.cls-3{letter-spacing:-0.02em;}.cls-4{letter-spacing:0em;}</style></defs><title>logo sur mujer</title><path classNameName="cls-1" d="M527.94,215l-56.87-17.18-.44-.13-24.1,5.92,35.69,11.11,1-3.24-24-7.48,11.34-2.79,44.92,13.57L488.16,222,279.62,167.12,71.07,222l-27.28-7.17L88.7,201.21,100,204l-24,7.48,1,3.24,35.68-11.11-24.09-5.92L31.29,215l33.1,8.71-33.1,8.7,57.32,17.32,24.09-5.93L77,232.69l-1,3.24,24,7.48L88.7,246.2,43.79,232.64l27.28-7.18,208.55,54.83,208.54-54.83,27.29,7.18L470.53,246.2l-11.34-2.79,24-7.48-1-3.24L446.53,243.8l24.1,5.93,57.31-17.32-33.09-8.7ZM279.62,276.78,77.75,223.71l201.87-53.08,201.86,53.08Z"/><path classNameName="cls-1" d="M100.09,223.71l179.53,37,179.52-37-179.52-37Zm179.53,33.48L116.94,223.71l162.68-33.49,162.67,33.49Z"/><path classNameName="cls-1" d="M267.44,194.36v8.76h-9.12v10H241.86v21.17h16.46v11.43h9.12v7.33H291.8v-7.33h9.12V234.29h16.45V213.12H300.92v-10H291.8v-8.76Zm-9.12,37.38H244.41V215.67h13.91Zm9.12,0h-6.57V215.67h6.57Zm21.81,18.76H270v-4.78h19.26Zm0-7.33H270v-8.88h19.26Zm0-30H270v-7.45h19.26Zm0-10H270v-6.21h19.26Zm11.67,12.55h13.91v16.07H300.92Zm-2.55,0v16.07H291.8V215.67Z"/><path classNameName="cls-1" d="M230.06,212.3h-7l-4.44-4.44-4.45,4.44h-7v7l-4.44,4.45,4.44,4.44v7h7l4.45,4.44,4.44-4.44h7v-7l4.44-4.44-4.44-4.45ZM225,230H212.35V217.4H225Z"/><path classNameName="cls-1" d="M177.68,217.3h-3.91l-2.49-2.49-2.5,2.49h-3.91v3.91l-2.49,2.5,2.49,2.49v3.91h3.91l2.5,2.5,2.49-2.5h3.91V226.2l2.5-2.49-2.5-2.5Zm-2.86,9.95h-7.08v-7.09h7.08Z"/><path classNameName="cls-1" d="M329.18,235.11h7l4.44,4.44,4.45-4.44h7v-7l4.45-4.44L352,219.26v-7h-7l-4.45-4.44-4.45,4.44h-6.95v7l-4.45,4.45,4.45,4.44Zm5.09-17.71h12.62V230H334.27Z"/><path classNameName="cls-1" d="M381.56,230.11h3.9l2.5,2.5,2.5-2.5h3.9V226.2l2.5-2.49-2.5-2.5V217.3h-3.9l-2.5-2.49-2.5,2.49h-3.9v3.91l-2.5,2.5,2.5,2.49Zm2.86-10h7.08v7.09h-7.08Z"/><path classNameName="cls-1" d="M79.11,44.63c0-4.33,2.58-6.94,6.08-6.94a5.17,5.17,0,0,1,3.75,1.65l-1.15,1.28a3.5,3.5,0,0,0-2.6-1.14c-2.37,0-4,1.94-4,5.09s1.6,5.17,4,5.17a3.69,3.69,0,0,0,2.85-1.39l1.15,1.24A5.25,5.25,0,0,1,85,51.53C81.72,51.53,79.11,49,79.11,44.63Z"/><path classNameName="cls-1" d="M91.22,46.32a5,5,0,1,1,9.93,0,5,5,0,1,1-9.93,0Zm7.85,0c0-2.14-1.12-3.57-2.88-3.57s-2.89,1.43-2.89,3.57,1.12,3.54,2.89,3.54S99.07,48.45,99.07,46.32Z"/><path classNameName="cls-1" d="M104.09,41.33h1.66l.16,1.58H106a5.07,5.07,0,0,1,3.67-1.83c2.33,0,3.39,1.43,3.39,4v6.18h-2V45.37c0-1.74-.59-2.54-2.06-2.54-1.09,0-1.82.53-2.84,1.59v6.87h-2Z"/><path classNameName="cls-1" d="M115.88,50l.9-1.31A7.27,7.27,0,0,0,121,50c1.53,0,2.26-.61,2.26-1.35s-.42-1.15-2.92-1.67-3.87-1.46-3.87-3c0-1.67,1.5-2.91,4.26-2.91a7.58,7.58,0,0,1,4.09,1.3l-.95,1.26a6,6,0,0,0-3.32-1c-1.48,0-2.06.59-2.06,1.27s.8,1.09,2.75,1.5c3.24.71,4.06,1.55,4.06,3.11s-1.62,3-4.56,3A8.88,8.88,0,0,1,115.88,50Z"/><path classNameName="cls-1" d="M128.25,47.51V41.33h2v5.91c0,1.72.57,2.54,2.07,2.54,1,0,1.8-.46,2.79-1.64V41.33h2v10H135.5l-.17-1.66h-.08a4.72,4.72,0,0,1-3.62,1.9C129.3,51.53,128.25,50.1,128.25,47.51Z"/><path classNameName="cls-1" d="M143.79,47.8V38.45h-3.42V36.83h5.45V47.92a1.71,1.71,0,0,0,1.88,1.94,4.4,4.4,0,0,0,1.78-.42L150,51a6.51,6.51,0,0,1-2.75.58C145,51.53,143.79,50.2,143.79,47.8Z"/><path classNameName="cls-1" d="M155.25,47.35V43H152.5V41.43l2.83-.1.26-3.16h1.69v3.16H162V43h-4.7v4.4c0,1.71.6,2.54,2.41,2.54a6.42,6.42,0,0,0,2.27-.42l.41,1.48a9.22,9.22,0,0,1-3.15.58C156.24,51.53,155.25,49.85,155.25,47.35Z"/><path classNameName="cls-1" d="M164.6,46.32a5,5,0,1,1,9.92,0,5,5,0,1,1-9.92,0Zm7.84,0c0-2.14-1.12-3.57-2.88-3.57s-2.88,1.43-2.88,3.57,1.12,3.54,2.88,3.54S172.44,48.45,172.44,46.32Z"/><path classNameName="cls-1" d="M178.47,41.33h1.68l.19,2.31h0a5.09,5.09,0,0,1,4.34-2.56,4.12,4.12,0,0,1,2,.41l-.45,1.72a5.15,5.15,0,0,0-1.82-.31c-1.43,0-2.8.72-3.91,2.73v5.66h-2Z"/><path classNameName="cls-1" d="M189.43,48.66c0-2.24,2-3.34,7.06-3.71a2.19,2.19,0,0,0-2.5-2.22,6.93,6.93,0,0,0-3.37,1.12l-.78-1.36a9,9,0,0,1,4.51-1.41c2.74,0,4.17,1.58,4.17,4.21v6h-1.68l-.16-1.3h-.06a6.51,6.51,0,0,1-3.82,1.54C190.9,51.53,189.43,50.41,189.43,48.66Zm7.06-.08V46.25c-3.91.28-5.07,1.06-5.07,2.25,0,1,.9,1.42,2,1.42A5,5,0,0,0,196.49,48.58Z"/><path classNameName="cls-1" d="M213.73,55.26l.39-1.59a2.83,2.83,0,0,0,.87.14,2.66,2.66,0,0,0,2.56-1.89l.26-.69-4.55-9.9h2l2.23,5.17c.38.9.78,1.93,1.16,2.92h.08c.33-1,.71-2,1-2.92l2-5.17h1.94l-4.28,10.59c-.8,2.1-2,3.55-4.34,3.55A4.22,4.22,0,0,1,213.73,55.26Z"/><path classNameName="cls-1" d="M239,37.94h8.41v1.72h-6.37v3.79h5.39v1.72h-5.39v4.39h6.57v1.73H239Z"/><path classNameName="cls-1" d="M250.83,41.33h1.66l.16,1.58h.09a5.05,5.05,0,0,1,3.66-1.83c2.33,0,3.4,1.43,3.4,4v6.18h-2V45.37c0-1.74-.58-2.54-2.06-2.54-1.08,0-1.81.53-2.84,1.59v6.87h-2Z"/><path classNameName="cls-1" d="M265.31,47.35V43h-2.75V41.43l2.83-.1.26-3.16h1.69v3.16H272V43h-4.7v4.4c0,1.71.6,2.54,2.41,2.54a6.42,6.42,0,0,0,2.27-.42l.41,1.48a9.22,9.22,0,0,1-3.15.58C266.3,51.53,265.31,49.85,265.31,47.35Z"/><path classNameName="cls-1" d="M279.73,43h-4.45V41.33h6.48v10h-2Zm-.66-5a1.52,1.52,0,1,1,1.51,1.45A1.41,1.41,0,0,1,279.07,37.93Z"/><path classNameName="cls-1" d="M286.89,46.32c0-3.24,2.13-5.24,4.44-5.24a4,4,0,0,1,2.87,1.22h.05l-.1-1.75V36.83h2V51.29h-1.66l-.16-1.24h-.07a4.59,4.59,0,0,1-3.12,1.48C288.59,51.53,286.89,49.63,286.89,46.32Zm7.26,2.19V43.79a3.38,3.38,0,0,0-2.36-1c-1.55,0-2.82,1.35-2.82,3.53s1,3.54,2.66,3.54A3.32,3.32,0,0,0,294.15,48.51Z"/><path classNameName="cls-1" d="M299.49,48.66c0-2.24,2-3.34,7.06-3.71a2.19,2.19,0,0,0-2.5-2.22,6.93,6.93,0,0,0-3.37,1.12l-.78-1.36a9,9,0,0,1,4.51-1.41c2.74,0,4.17,1.58,4.17,4.21v6H306.9l-.16-1.3h-.06a6.51,6.51,0,0,1-3.82,1.54C301,51.53,299.49,50.41,299.49,48.66Zm7.06-.08V46.25c-3.91.28-5.07,1.06-5.07,2.25,0,1,.9,1.42,2,1.42A5,5,0,0,0,306.55,48.58Z"/><path classNameName="cls-1" d="M311.34,46.32c0-3.24,2.14-5.24,4.45-5.24a4,4,0,0,1,2.86,1.22h.05l-.09-1.75V36.83h2V51.29H319l-.17-1.24h-.06a4.63,4.63,0,0,1-3.13,1.48C313.05,51.53,311.34,49.63,311.34,46.32Zm7.27,2.19V43.79a3.38,3.38,0,0,0-2.36-1c-1.55,0-2.83,1.35-2.83,3.53s1,3.54,2.67,3.54A3.33,3.33,0,0,0,318.61,48.51Z"/><path classNameName="cls-1" d="M336.58,37.94h4.22c2.93,0,5,1,5,4s-2.11,4.23-5,4.23h-2.17v5.1h-2.05Zm4,6.61c2.15,0,3.18-.83,3.18-2.59s-1.06-2.38-3.18-2.38h-2v5Z"/><path classNameName="cls-1" d="M348.41,48.66c0-2.24,2-3.34,7-3.71a2.19,2.19,0,0,0-2.5-2.22,7,7,0,0,0-3.37,1.12l-.77-1.36a8.94,8.94,0,0,1,4.5-1.41c2.75,0,4.18,1.58,4.18,4.21v6h-1.68l-.16-1.3h-.07a6.48,6.48,0,0,1-3.81,1.54C349.87,51.53,348.41,50.41,348.41,48.66Zm7-.08V46.25c-3.91.28-5.07,1.06-5.07,2.25,0,1,.9,1.42,2,1.42A5,5,0,0,0,355.46,48.58Z"/><path classNameName="cls-1" d="M363.14,47.35V43h-2.75V41.43l2.83-.1.26-3.16h1.69v3.16h4.7V43h-4.7v4.4c0,1.71.61,2.54,2.41,2.54a6.42,6.42,0,0,0,2.27-.42l.41,1.48a9.22,9.22,0,0,1-3.15.58C364.13,51.53,363.14,49.85,363.14,47.35Z"/><path classNameName="cls-1" d="M374.13,41.33h1.69l.18,2.31h.05a5.06,5.06,0,0,1,4.34-2.56,4.08,4.08,0,0,1,1.95.41l-.45,1.72a5.12,5.12,0,0,0-1.82-.31c-1.43,0-2.8.72-3.9,2.73v5.66h-2Z"/><path classNameName="cls-1" d="M384.72,46.32a5,5,0,1,1,9.92,0,5,5,0,1,1-9.92,0Zm7.84,0c0-2.14-1.12-3.57-2.88-3.57s-2.88,1.43-2.88,3.57,1.12,3.54,2.88,3.54S392.56,48.45,392.56,46.32Z"/><path classNameName="cls-1" d="M397.36,46.32c0-3.33,2.58-5.24,5.6-5.24a5.14,5.14,0,0,1,3.66,1.43l-1,1.28a4,4,0,0,0-2.59-1,3.41,3.41,0,0,0-3.62,3.57A3.37,3.37,0,0,0,403,49.86,4.68,4.68,0,0,0,406,48.69l.87,1.31a6.05,6.05,0,0,1-4,1.53C399.71,51.53,397.36,49.62,397.36,46.32Z"/><path classNameName="cls-1" d="M414.25,43H409.8V41.33h6.48v10h-2Zm-.66-5a1.51,1.51,0,0,1,3,0,1.51,1.51,0,0,1-3,0Z"/><path classNameName="cls-1" d="M422,41.33h1.66l.16,1.58h.08a5.07,5.07,0,0,1,3.67-1.83c2.33,0,3.39,1.43,3.39,4v6.18h-2V45.37c0-1.74-.58-2.54-2.06-2.54-1.08,0-1.82.53-2.84,1.59v6.87h-2Z"/><path classNameName="cls-1" d="M434,48.66c0-2.24,2-3.34,7.06-3.71a2.2,2.2,0,0,0-2.51-2.22,6.93,6.93,0,0,0-3.36,1.12l-.78-1.36a9,9,0,0,1,4.5-1.41c2.75,0,4.18,1.58,4.18,4.21v6h-1.68l-.16-1.3h-.07a6.48,6.48,0,0,1-3.81,1.54C435.48,51.53,434,50.41,434,48.66Zm7.06-.08V46.25c-3.92.28-5.07,1.06-5.07,2.25,0,1,.89,1.42,2,1.42A5,5,0,0,0,441.07,48.58Z"/><path classNameName="cls-1" d="M446.49,41.33h1.66l.17,1.58h.08a5.07,5.07,0,0,1,3.67-1.83c2.33,0,3.39,1.43,3.39,4v6.18h-2V45.37c0-1.74-.59-2.54-2.06-2.54-1.09,0-1.82.53-2.84,1.59v6.87h-2Z"/><path classNameName="cls-1" d="M461,47.35V43h-2.75V41.43l2.83-.1.27-3.16H463v3.16h4.7V43H463v4.4c0,1.71.61,2.54,2.41,2.54a6.37,6.37,0,0,0,2.27-.42l.41,1.48a9.22,9.22,0,0,1-3.15.58C462,51.53,461,49.85,461,47.35Z"/><path classNameName="cls-1" d="M470.48,46.29a5,5,0,0,1,5.11-5.21c2.93,0,4.59,1.92,4.59,4.7a7.75,7.75,0,0,1-.09,1.11h-8.2V45.4h6.93l-.44.49c0-2.15-1-3.24-2.73-3.24s-3.18,1.29-3.18,3.64a3.37,3.37,0,0,0,3.68,3.65,5.43,5.43,0,0,0,2.91-.87l.71,1.28a7.07,7.07,0,0,1-3.88,1.18A5.06,5.06,0,0,1,470.48,46.29Z"/><text classNameName="cls-2" transform="translate(41.3 144.5)">Sur Mu<tspan classNameName="cls-3" x="348.73" y="0">j</tspan><tspan classNameName="cls-4" x="379.13" y="0">er</tspan></text></svg>